<mxfile host="Electron" modified="2023-07-09T10:14:26.524Z" agent="Mozilla/5.0 (Macintosh; Intel Mac OS X 10_15_7) AppleWebKit/537.36 (KHTML, like Gecko) draw.io/21.6.1 Chrome/112.0.5615.204 Electron/24.6.1 Safari/537.36" etag="ZgUa67LvRcjxGB1-fMY7" version="21.6.1" type="device">
  <diagram name="Page-1" id="IanU65lXr5YfgjGVrclR">
    <mxGraphModel dx="1120" dy="855" grid="1" gridSize="10" guides="1" tooltips="1" connect="1" arrows="1" fold="1" page="1" pageScale="1" pageWidth="1169" pageHeight="827" math="0" shadow="0">
      <root>
        <UserObject label="" animation="show h92vyBFQPAxpP5EG-O4V-59 fade&#xa;show h92vyBFQPAxpP5EG-O4V-61 fade&#xa;wait 1000&#xa;" id="0">
          <mxCell />
        </UserObject>
        <mxCell id="1" parent="0" visible="0" />
        <mxCell id="ejBQTjxxGpx7nVnpFVH0-9" value="&lt;font style=&quot;font-size: 18px;&quot;&gt;Orchestrator&lt;/font&gt;" style="ellipse;whiteSpace=wrap;html=1;fontSize=18;" parent="1" vertex="1">
          <mxGeometry x="910" y="630" width="120" height="80" as="geometry" />
        </mxCell>
        <mxCell id="rK9YfflER0Mp0wtVrPLG-1" value="&lt;font style=&quot;font-size: 20px;&quot;&gt;User&lt;/font&gt;" style="sketch=0;outlineConnect=0;fontColor=#232F3E;gradientColor=none;fillColor=#232F3D;strokeColor=none;dashed=0;verticalLabelPosition=bottom;verticalAlign=top;align=center;html=1;fontSize=12;fontStyle=0;aspect=fixed;pointerEvents=1;shape=mxgraph.aws4.user;" parent="1" vertex="1">
          <mxGeometry x="41" y="630" width="78" height="78" as="geometry" />
        </mxCell>
        <mxCell id="ejBQTjxxGpx7nVnpFVH0-27" value="&lt;font style=&quot;font-size: 18px;&quot;&gt;Policy enforcer&lt;/font&gt;" style="ellipse;whiteSpace=wrap;html=1;fontSize=18;" parent="1" vertex="1">
          <mxGeometry x="520" y="630" width="120" height="80" as="geometry" />
        </mxCell>
        <mxCell id="1hLJXNPvr-CjMOHG3oBd-73" value="" style="group" parent="1" vertex="1" connectable="0">
          <mxGeometry x="10" y="60" width="362.0689655172414" height="388.78999999999996" as="geometry" />
        </mxCell>
        <mxCell id="1hLJXNPvr-CjMOHG3oBd-45" value="" style="rounded=1;whiteSpace=wrap;html=1;fontSize=18;" parent="1hLJXNPvr-CjMOHG3oBd-73" vertex="1">
          <mxGeometry width="362.0689655172414" height="388.79" as="geometry" />
        </mxCell>
        <mxCell id="1hLJXNPvr-CjMOHG3oBd-46" value="&lt;b style=&quot;font-size: 18px;&quot;&gt;Data steward - VU&lt;br&gt;&lt;/b&gt;" style="text;html=1;strokeColor=none;fillColor=none;align=center;verticalAlign=middle;whiteSpace=wrap;rounded=0;fontSize=18;" parent="1hLJXNPvr-CjMOHG3oBd-73" vertex="1">
          <mxGeometry x="20.002439048904705" width="177.94438271990612" height="34.075325623858795" as="geometry" />
        </mxCell>
        <mxCell id="1hLJXNPvr-CjMOHG3oBd-47" value="&lt;font style=&quot;font-size: 20px;&quot;&gt;Data pod&lt;/font&gt;" style="sketch=0;outlineConnect=0;fontColor=#232F3E;gradientColor=none;fillColor=#000000;strokeColor=none;dashed=0;verticalLabelPosition=bottom;verticalAlign=top;align=center;html=1;fontSize=12;fontStyle=0;aspect=fixed;pointerEvents=1;shape=mxgraph.aws4.vault;" parent="1hLJXNPvr-CjMOHG3oBd-73" vertex="1">
          <mxGeometry x="49.99796902122398" y="42.5436750659363" width="54.027032030882225" height="67.97232114274954" as="geometry" />
        </mxCell>
        <mxCell id="1hLJXNPvr-CjMOHG3oBd-50" value="&lt;font style=&quot;font-size: 18px;&quot;&gt;Distributed agent&lt;br&gt;&lt;/font&gt;" style="ellipse;whiteSpace=wrap;html=1;fontSize=18;" parent="1hLJXNPvr-CjMOHG3oBd-73" vertex="1">
          <mxGeometry x="10" y="294" width="82.99" height="59.94" as="geometry" />
        </mxCell>
        <mxCell id="1hLJXNPvr-CjMOHG3oBd-51" value="" style="group" parent="1hLJXNPvr-CjMOHG3oBd-73" vertex="1" connectable="0">
          <mxGeometry x="257.1428571428571" y="37.41186792452834" width="57.14285714285714" height="71.88947169811323" as="geometry" />
        </mxCell>
        <mxCell id="1hLJXNPvr-CjMOHG3oBd-52" value="" style="sketch=0;html=1;dashed=0;whitespace=wrap;fillColor=#2875E2;strokeColor=#ffffff;points=[[0.005,0.63,0],[0.1,0.2,0],[0.9,0.2,0],[0.5,0,0],[0.995,0.63,0],[0.72,0.99,0],[0.5,1,0],[0.28,0.99,0]];verticalLabelPosition=bottom;align=center;verticalAlign=top;shape=mxgraph.kubernetes.icon;prIcon=pod" parent="1hLJXNPvr-CjMOHG3oBd-51" vertex="1">
          <mxGeometry x="3.571428571428571" width="50.00000000000001" height="49.3616586792453" as="geometry" />
        </mxCell>
        <mxCell id="1hLJXNPvr-CjMOHG3oBd-53" value="&lt;font style=&quot;font-size: 14px;&quot;&gt;Query service&lt;/font&gt;" style="text;html=1;strokeColor=none;fillColor=none;align=center;verticalAlign=middle;whiteSpace=wrap;rounded=0;" parent="1hLJXNPvr-CjMOHG3oBd-51" vertex="1">
          <mxGeometry y="49.88249056603775" width="57.14285714285714" height="22.006981132075474" as="geometry" />
        </mxCell>
        <mxCell id="1hLJXNPvr-CjMOHG3oBd-54" value="" style="group" parent="1hLJXNPvr-CjMOHG3oBd-73" vertex="1" connectable="0">
          <mxGeometry x="257.1428571428571" y="123.23909433962268" width="57.14285714285714" height="71.88947169811323" as="geometry" />
        </mxCell>
        <mxCell id="1hLJXNPvr-CjMOHG3oBd-55" value="" style="sketch=0;html=1;dashed=0;whitespace=wrap;fillColor=#2875E2;strokeColor=#ffffff;points=[[0.005,0.63,0],[0.1,0.2,0],[0.9,0.2,0],[0.5,0,0],[0.995,0.63,0],[0.72,0.99,0],[0.5,1,0],[0.28,0.99,0]];verticalLabelPosition=bottom;align=center;verticalAlign=top;shape=mxgraph.kubernetes.icon;prIcon=pod" parent="1hLJXNPvr-CjMOHG3oBd-54" vertex="1">
          <mxGeometry x="3.571428571428571" width="50.00000000000001" height="49.3616586792453" as="geometry" />
        </mxCell>
        <mxCell id="1hLJXNPvr-CjMOHG3oBd-56" value="&lt;font style=&quot;font-size: 14px;&quot;&gt;Anonymize service&lt;/font&gt;" style="text;html=1;strokeColor=none;fillColor=none;align=center;verticalAlign=middle;whiteSpace=wrap;rounded=0;" parent="1hLJXNPvr-CjMOHG3oBd-54" vertex="1">
          <mxGeometry y="49.88249056603775" width="57.14285714285714" height="22.006981132075474" as="geometry" />
        </mxCell>
        <mxCell id="1hLJXNPvr-CjMOHG3oBd-57" value="" style="group" parent="1hLJXNPvr-CjMOHG3oBd-73" vertex="1" connectable="0">
          <mxGeometry x="257.1428571428571" y="211.26701886792455" width="57.14285714285714" height="71.88947169811323" as="geometry" />
        </mxCell>
        <mxCell id="1hLJXNPvr-CjMOHG3oBd-58" value="" style="sketch=0;html=1;dashed=0;whitespace=wrap;fillColor=#2875E2;strokeColor=#ffffff;points=[[0.005,0.63,0],[0.1,0.2,0],[0.9,0.2,0],[0.5,0,0],[0.995,0.63,0],[0.72,0.99,0],[0.5,1,0],[0.28,0.99,0]];verticalLabelPosition=bottom;align=center;verticalAlign=top;shape=mxgraph.kubernetes.icon;prIcon=pod" parent="1hLJXNPvr-CjMOHG3oBd-57" vertex="1">
          <mxGeometry x="3.571428571428571" width="50.00000000000001" height="49.3616586792453" as="geometry" />
        </mxCell>
        <mxCell id="1hLJXNPvr-CjMOHG3oBd-59" value="&lt;font style=&quot;font-size: 14px;&quot;&gt;Algorithm service&lt;/font&gt;" style="text;html=1;strokeColor=none;fillColor=none;align=center;verticalAlign=middle;whiteSpace=wrap;rounded=0;" parent="1hLJXNPvr-CjMOHG3oBd-57" vertex="1">
          <mxGeometry y="49.88249056603775" width="57.14285714285714" height="22.006981132075474" as="geometry" />
        </mxCell>
        <mxCell id="1hLJXNPvr-CjMOHG3oBd-60" value="" style="group" parent="1hLJXNPvr-CjMOHG3oBd-73" vertex="1" connectable="0">
          <mxGeometry x="257.1428571428571" y="299.2949433962264" width="57.14285714285714" height="71.88947169811323" as="geometry" />
        </mxCell>
        <mxCell id="1hLJXNPvr-CjMOHG3oBd-61" value="" style="sketch=0;html=1;dashed=0;whitespace=wrap;fillColor=#2875E2;strokeColor=#ffffff;points=[[0.005,0.63,0],[0.1,0.2,0],[0.9,0.2,0],[0.5,0,0],[0.995,0.63,0],[0.72,0.99,0],[0.5,1,0],[0.28,0.99,0]];verticalLabelPosition=bottom;align=center;verticalAlign=top;shape=mxgraph.kubernetes.icon;prIcon=pod" parent="1hLJXNPvr-CjMOHG3oBd-60" vertex="1">
          <mxGeometry x="3.571428571428571" width="50.00000000000001" height="49.3616586792453" as="geometry" />
        </mxCell>
        <mxCell id="1hLJXNPvr-CjMOHG3oBd-62" value="&lt;font style=&quot;font-size: 14px;&quot;&gt;Graph service&lt;/font&gt;" style="text;html=1;strokeColor=none;fillColor=none;align=center;verticalAlign=middle;whiteSpace=wrap;rounded=0;" parent="1hLJXNPvr-CjMOHG3oBd-60" vertex="1">
          <mxGeometry y="49.88249056603775" width="57.14285714285714" height="22.006981132075474" as="geometry" />
        </mxCell>
        <mxCell id="1hLJXNPvr-CjMOHG3oBd-65" value="&lt;font style=&quot;font-size: 13px;&quot;&gt;Access Data pod&lt;/font&gt;" style="edgeLabel;html=1;align=center;verticalAlign=middle;resizable=0;points=[];" parent="1hLJXNPvr-CjMOHG3oBd-73" vertex="1" connectable="0">
          <mxGeometry x="180.71428571428578" y="55.111111111111086" as="geometry" />
        </mxCell>
        <mxCell id="1hLJXNPvr-CjMOHG3oBd-69" style="edgeStyle=orthogonalEdgeStyle;rounded=0;orthogonalLoop=1;jettySize=auto;html=1;entryX=0.497;entryY=0.184;entryDx=0;entryDy=0;entryPerimeter=0;" parent="1hLJXNPvr-CjMOHG3oBd-73" source="1hLJXNPvr-CjMOHG3oBd-53" target="1hLJXNPvr-CjMOHG3oBd-55" edge="1">
          <mxGeometry relative="1" as="geometry" />
        </mxCell>
        <mxCell id="1hLJXNPvr-CjMOHG3oBd-70" style="edgeStyle=orthogonalEdgeStyle;rounded=0;orthogonalLoop=1;jettySize=auto;html=1;entryX=0.5;entryY=0.177;entryDx=0;entryDy=0;entryPerimeter=0;" parent="1hLJXNPvr-CjMOHG3oBd-73" source="1hLJXNPvr-CjMOHG3oBd-56" target="1hLJXNPvr-CjMOHG3oBd-58" edge="1">
          <mxGeometry relative="1" as="geometry" />
        </mxCell>
        <mxCell id="1hLJXNPvr-CjMOHG3oBd-71" style="edgeStyle=orthogonalEdgeStyle;rounded=0;orthogonalLoop=1;jettySize=auto;html=1;entryX=0.5;entryY=0.217;entryDx=0;entryDy=0;entryPerimeter=0;" parent="1hLJXNPvr-CjMOHG3oBd-73" source="1hLJXNPvr-CjMOHG3oBd-59" target="1hLJXNPvr-CjMOHG3oBd-61" edge="1">
          <mxGeometry relative="1" as="geometry" />
        </mxCell>
        <mxCell id="1hLJXNPvr-CjMOHG3oBd-48" style="rounded=0;orthogonalLoop=1;jettySize=auto;html=1;entryX=0.005;entryY=0.63;entryDx=0;entryDy=0;entryPerimeter=0;" parent="1hLJXNPvr-CjMOHG3oBd-73" source="1hLJXNPvr-CjMOHG3oBd-50" target="1hLJXNPvr-CjMOHG3oBd-52" edge="1">
          <mxGeometry relative="1" as="geometry" />
        </mxCell>
        <mxCell id="1hLJXNPvr-CjMOHG3oBd-49" value="&lt;font style=&quot;font-size: 13px;&quot;&gt;DataRequest&lt;/font&gt;" style="edgeLabel;html=1;align=center;verticalAlign=middle;resizable=0;points=[];" parent="1hLJXNPvr-CjMOHG3oBd-48" vertex="1" connectable="0">
          <mxGeometry x="-0.0817" y="-1" relative="1" as="geometry">
            <mxPoint x="-30" y="57" as="offset" />
          </mxGeometry>
        </mxCell>
        <mxCell id="1hLJXNPvr-CjMOHG3oBd-72" style="edgeStyle=orthogonalEdgeStyle;rounded=0;orthogonalLoop=1;jettySize=auto;html=1;entryX=0.926;entryY=0.285;entryDx=0;entryDy=0;entryPerimeter=0;" parent="1hLJXNPvr-CjMOHG3oBd-73" source="1hLJXNPvr-CjMOHG3oBd-52" target="1hLJXNPvr-CjMOHG3oBd-47" edge="1">
          <mxGeometry relative="1" as="geometry" />
        </mxCell>
        <mxCell id="1hLJXNPvr-CjMOHG3oBd-99" value="" style="group" parent="1" vertex="1" connectable="0">
          <mxGeometry x="780" y="60" width="362.0689655172414" height="388.78999999999996" as="geometry" />
        </mxCell>
        <mxCell id="1hLJXNPvr-CjMOHG3oBd-74" value="" style="rounded=1;whiteSpace=wrap;html=1;fontSize=18;" parent="1hLJXNPvr-CjMOHG3oBd-99" vertex="1">
          <mxGeometry width="362.0689655172414" height="388.79" as="geometry" />
        </mxCell>
        <mxCell id="1hLJXNPvr-CjMOHG3oBd-75" value="&lt;b style=&quot;font-size: 18px;&quot;&gt;Data steward - UvA&lt;br&gt;&lt;/b&gt;" style="text;html=1;strokeColor=none;fillColor=none;align=center;verticalAlign=middle;whiteSpace=wrap;rounded=0;fontSize=18;" parent="1hLJXNPvr-CjMOHG3oBd-99" vertex="1">
          <mxGeometry x="20.002439048904705" width="177.94438271990612" height="34.075325623858795" as="geometry" />
        </mxCell>
        <mxCell id="1hLJXNPvr-CjMOHG3oBd-76" value="&lt;font style=&quot;font-size: 20px;&quot;&gt;Data pod&lt;/font&gt;" style="sketch=0;outlineConnect=0;fontColor=#232F3E;gradientColor=none;fillColor=#000000;strokeColor=none;dashed=0;verticalLabelPosition=bottom;verticalAlign=top;align=center;html=1;fontSize=12;fontStyle=0;aspect=fixed;pointerEvents=1;shape=mxgraph.aws4.vault;" parent="1hLJXNPvr-CjMOHG3oBd-99" vertex="1">
          <mxGeometry x="49.99796902122398" y="42.5436750659363" width="54.027032030882225" height="67.97232114274954" as="geometry" />
        </mxCell>
        <mxCell id="1hLJXNPvr-CjMOHG3oBd-79" value="&lt;font style=&quot;font-size: 18px;&quot;&gt;Distributed agent&lt;br&gt;&lt;/font&gt;" style="ellipse;whiteSpace=wrap;html=1;fontSize=18;" parent="1hLJXNPvr-CjMOHG3oBd-99" vertex="1">
          <mxGeometry x="20" y="294" width="82.99" height="59.94" as="geometry" />
        </mxCell>
        <mxCell id="1hLJXNPvr-CjMOHG3oBd-80" value="" style="group" parent="1hLJXNPvr-CjMOHG3oBd-99" vertex="1" connectable="0">
          <mxGeometry x="257.1428571428571" y="37.41186792452834" width="57.14285714285714" height="71.88947169811323" as="geometry" />
        </mxCell>
        <mxCell id="1hLJXNPvr-CjMOHG3oBd-81" value="" style="sketch=0;html=1;dashed=0;whitespace=wrap;fillColor=#2875E2;strokeColor=#ffffff;points=[[0.005,0.63,0],[0.1,0.2,0],[0.9,0.2,0],[0.5,0,0],[0.995,0.63,0],[0.72,0.99,0],[0.5,1,0],[0.28,0.99,0]];verticalLabelPosition=bottom;align=center;verticalAlign=top;shape=mxgraph.kubernetes.icon;prIcon=pod" parent="1hLJXNPvr-CjMOHG3oBd-80" vertex="1">
          <mxGeometry x="3.571428571428571" width="50.00000000000001" height="49.3616586792453" as="geometry" />
        </mxCell>
        <mxCell id="1hLJXNPvr-CjMOHG3oBd-82" value="&lt;font style=&quot;font-size: 14px;&quot;&gt;Query service&lt;/font&gt;" style="text;html=1;strokeColor=none;fillColor=none;align=center;verticalAlign=middle;whiteSpace=wrap;rounded=0;" parent="1hLJXNPvr-CjMOHG3oBd-80" vertex="1">
          <mxGeometry y="49.88249056603775" width="57.14285714285714" height="22.006981132075474" as="geometry" />
        </mxCell>
        <mxCell id="1hLJXNPvr-CjMOHG3oBd-83" value="" style="group" parent="1hLJXNPvr-CjMOHG3oBd-99" vertex="1" connectable="0">
          <mxGeometry x="257.1428571428571" y="123.23909433962268" width="57.14285714285714" height="71.88947169811323" as="geometry" />
        </mxCell>
        <mxCell id="1hLJXNPvr-CjMOHG3oBd-84" value="" style="sketch=0;html=1;dashed=0;whitespace=wrap;fillColor=#2875E2;strokeColor=#ffffff;points=[[0.005,0.63,0],[0.1,0.2,0],[0.9,0.2,0],[0.5,0,0],[0.995,0.63,0],[0.72,0.99,0],[0.5,1,0],[0.28,0.99,0]];verticalLabelPosition=bottom;align=center;verticalAlign=top;shape=mxgraph.kubernetes.icon;prIcon=pod" parent="1hLJXNPvr-CjMOHG3oBd-83" vertex="1">
          <mxGeometry x="3.571428571428571" width="50.00000000000001" height="49.3616586792453" as="geometry" />
        </mxCell>
        <mxCell id="1hLJXNPvr-CjMOHG3oBd-85" value="&lt;font style=&quot;font-size: 14px;&quot;&gt;Anonymize service&lt;/font&gt;" style="text;html=1;strokeColor=none;fillColor=none;align=center;verticalAlign=middle;whiteSpace=wrap;rounded=0;" parent="1hLJXNPvr-CjMOHG3oBd-83" vertex="1">
          <mxGeometry y="49.88249056603775" width="57.14285714285714" height="22.006981132075474" as="geometry" />
        </mxCell>
        <mxCell id="1hLJXNPvr-CjMOHG3oBd-86" value="" style="group" parent="1hLJXNPvr-CjMOHG3oBd-99" vertex="1" connectable="0">
          <mxGeometry x="257.1428571428571" y="211.26701886792455" width="57.14285714285714" height="71.88947169811323" as="geometry" />
        </mxCell>
        <mxCell id="1hLJXNPvr-CjMOHG3oBd-87" value="" style="sketch=0;html=1;dashed=0;whitespace=wrap;fillColor=#2875E2;strokeColor=#ffffff;points=[[0.005,0.63,0],[0.1,0.2,0],[0.9,0.2,0],[0.5,0,0],[0.995,0.63,0],[0.72,0.99,0],[0.5,1,0],[0.28,0.99,0]];verticalLabelPosition=bottom;align=center;verticalAlign=top;shape=mxgraph.kubernetes.icon;prIcon=pod" parent="1hLJXNPvr-CjMOHG3oBd-86" vertex="1">
          <mxGeometry x="3.571428571428571" width="50.00000000000001" height="49.3616586792453" as="geometry" />
        </mxCell>
        <mxCell id="1hLJXNPvr-CjMOHG3oBd-88" value="&lt;font style=&quot;font-size: 14px;&quot;&gt;Algorithm service&lt;/font&gt;" style="text;html=1;strokeColor=none;fillColor=none;align=center;verticalAlign=middle;whiteSpace=wrap;rounded=0;" parent="1hLJXNPvr-CjMOHG3oBd-86" vertex="1">
          <mxGeometry y="49.88249056603775" width="57.14285714285714" height="22.006981132075474" as="geometry" />
        </mxCell>
        <mxCell id="1hLJXNPvr-CjMOHG3oBd-89" value="" style="group" parent="1hLJXNPvr-CjMOHG3oBd-99" vertex="1" connectable="0">
          <mxGeometry x="257.1428571428571" y="299.2949433962264" width="57.14285714285714" height="71.88947169811323" as="geometry" />
        </mxCell>
        <mxCell id="1hLJXNPvr-CjMOHG3oBd-90" value="" style="sketch=0;html=1;dashed=0;whitespace=wrap;fillColor=#2875E2;strokeColor=#ffffff;points=[[0.005,0.63,0],[0.1,0.2,0],[0.9,0.2,0],[0.5,0,0],[0.995,0.63,0],[0.72,0.99,0],[0.5,1,0],[0.28,0.99,0]];verticalLabelPosition=bottom;align=center;verticalAlign=top;shape=mxgraph.kubernetes.icon;prIcon=pod" parent="1hLJXNPvr-CjMOHG3oBd-89" vertex="1">
          <mxGeometry x="3.571428571428571" width="50.00000000000001" height="49.3616586792453" as="geometry" />
        </mxCell>
        <mxCell id="1hLJXNPvr-CjMOHG3oBd-91" value="&lt;font style=&quot;font-size: 14px;&quot;&gt;Graph service&lt;/font&gt;" style="text;html=1;strokeColor=none;fillColor=none;align=center;verticalAlign=middle;whiteSpace=wrap;rounded=0;" parent="1hLJXNPvr-CjMOHG3oBd-89" vertex="1">
          <mxGeometry y="49.88249056603775" width="57.14285714285714" height="22.006981132075474" as="geometry" />
        </mxCell>
        <mxCell id="1hLJXNPvr-CjMOHG3oBd-94" value="&lt;font style=&quot;font-size: 13px;&quot;&gt;Access Data pod&lt;/font&gt;" style="edgeLabel;html=1;align=center;verticalAlign=middle;resizable=0;points=[];" parent="1hLJXNPvr-CjMOHG3oBd-99" vertex="1" connectable="0">
          <mxGeometry x="180.71428571428578" y="55.111111111111086" as="geometry" />
        </mxCell>
        <mxCell id="1hLJXNPvr-CjMOHG3oBd-95" style="edgeStyle=orthogonalEdgeStyle;rounded=0;orthogonalLoop=1;jettySize=auto;html=1;entryX=0.497;entryY=0.184;entryDx=0;entryDy=0;entryPerimeter=0;" parent="1hLJXNPvr-CjMOHG3oBd-99" source="1hLJXNPvr-CjMOHG3oBd-82" target="1hLJXNPvr-CjMOHG3oBd-84" edge="1">
          <mxGeometry relative="1" as="geometry" />
        </mxCell>
        <mxCell id="1hLJXNPvr-CjMOHG3oBd-96" style="edgeStyle=orthogonalEdgeStyle;rounded=0;orthogonalLoop=1;jettySize=auto;html=1;entryX=0.5;entryY=0.177;entryDx=0;entryDy=0;entryPerimeter=0;" parent="1hLJXNPvr-CjMOHG3oBd-99" source="1hLJXNPvr-CjMOHG3oBd-85" target="1hLJXNPvr-CjMOHG3oBd-87" edge="1">
          <mxGeometry relative="1" as="geometry" />
        </mxCell>
        <mxCell id="1hLJXNPvr-CjMOHG3oBd-97" style="edgeStyle=orthogonalEdgeStyle;rounded=0;orthogonalLoop=1;jettySize=auto;html=1;entryX=0.5;entryY=0.217;entryDx=0;entryDy=0;entryPerimeter=0;" parent="1hLJXNPvr-CjMOHG3oBd-99" source="1hLJXNPvr-CjMOHG3oBd-88" target="1hLJXNPvr-CjMOHG3oBd-90" edge="1">
          <mxGeometry relative="1" as="geometry" />
        </mxCell>
        <mxCell id="1hLJXNPvr-CjMOHG3oBd-77" style="rounded=0;orthogonalLoop=1;jettySize=auto;html=1;entryX=0.005;entryY=0.63;entryDx=0;entryDy=0;entryPerimeter=0;" parent="1hLJXNPvr-CjMOHG3oBd-99" source="1hLJXNPvr-CjMOHG3oBd-79" target="1hLJXNPvr-CjMOHG3oBd-81" edge="1">
          <mxGeometry relative="1" as="geometry" />
        </mxCell>
        <mxCell id="1hLJXNPvr-CjMOHG3oBd-78" value="&lt;font style=&quot;font-size: 13px;&quot;&gt;DataRequest&lt;/font&gt;" style="edgeLabel;html=1;align=center;verticalAlign=middle;resizable=0;points=[];" parent="1hLJXNPvr-CjMOHG3oBd-77" vertex="1" connectable="0">
          <mxGeometry x="-0.0817" y="-1" relative="1" as="geometry">
            <mxPoint x="-35" y="67" as="offset" />
          </mxGeometry>
        </mxCell>
        <mxCell id="1hLJXNPvr-CjMOHG3oBd-98" style="edgeStyle=orthogonalEdgeStyle;rounded=0;orthogonalLoop=1;jettySize=auto;html=1;entryX=0.926;entryY=0.285;entryDx=0;entryDy=0;entryPerimeter=0;" parent="1hLJXNPvr-CjMOHG3oBd-99" source="1hLJXNPvr-CjMOHG3oBd-81" target="1hLJXNPvr-CjMOHG3oBd-76" edge="1">
          <mxGeometry relative="1" as="geometry" />
        </mxCell>
        <object label="archetype-arrives" id="_XR76nhHlAqlG2cMq_mx-5">
          <mxCell parent="0" visible="0" />
        </object>
        <mxCell id="_XR76nhHlAqlG2cMq_mx-6" value="" style="endArrow=classic;html=1;rounded=0;" parent="_XR76nhHlAqlG2cMq_mx-5" edge="1">
          <mxGeometry width="50" height="50" relative="1" as="geometry">
            <mxPoint x="580" y="810" as="sourcePoint" />
            <mxPoint x="580" y="710" as="targetPoint" />
          </mxGeometry>
        </mxCell>
        <mxCell id="_XR76nhHlAqlG2cMq_mx-7" value="&lt;ul style=&quot;border-color: var(--border-color); font-size: 16px; text-align: left;&quot;&gt;&lt;li style=&quot;border-color: var(--border-color);&quot;&gt;New archetype pattern for this agreement&lt;/li&gt;&lt;li style=&quot;border-color: var(--border-color);&quot;&gt;&lt;span style=&quot;border-color: var(--border-color);&quot;&gt;Invalidate accessTokens for associated users&lt;/span&gt;&lt;/li&gt;&lt;/ul&gt;" style="text;html=1;strokeColor=none;fillColor=none;align=center;verticalAlign=middle;whiteSpace=wrap;rounded=0;" parent="_XR76nhHlAqlG2cMq_mx-5" vertex="1">
          <mxGeometry x="570" y="750" width="350" height="60" as="geometry" />
        </mxCell>
        <object label="Requests-send-out" id="_XR76nhHlAqlG2cMq_mx-14">
          <mxCell parent="0" visible="0" />
        </object>
        <mxCell id="_XR76nhHlAqlG2cMq_mx-15" style="edgeStyle=orthogonalEdgeStyle;rounded=0;orthogonalLoop=1;jettySize=auto;html=1;curved=1;entryX=0;entryY=1;entryDx=0;entryDy=0;" parent="_XR76nhHlAqlG2cMq_mx-14" edge="1">
          <mxGeometry relative="1" as="geometry">
            <mxPoint x="80" y="708" as="sourcePoint" />
            <mxPoint x="538" y="698" as="targetPoint" />
            <Array as="points">
              <mxPoint x="80" y="730" />
              <mxPoint x="538" y="730" />
            </Array>
          </mxGeometry>
        </mxCell>
        <mxCell id="_XR76nhHlAqlG2cMq_mx-16" value="&lt;font style=&quot;font-size: 16px;&quot;&gt;TokenRefresh&lt;/font&gt;" style="edgeLabel;html=1;align=center;verticalAlign=middle;resizable=0;points=[];" parent="_XR76nhHlAqlG2cMq_mx-15" vertex="1" connectable="0">
          <mxGeometry x="0.0444" y="-2" relative="1" as="geometry">
            <mxPoint x="-15" y="8" as="offset" />
          </mxGeometry>
        </mxCell>
        <mxCell id="_XR76nhHlAqlG2cMq_mx-17" style="edgeStyle=orthogonalEdgeStyle;rounded=0;orthogonalLoop=1;jettySize=auto;html=1;" parent="_XR76nhHlAqlG2cMq_mx-14" edge="1">
          <mxGeometry relative="1" as="geometry">
            <mxPoint x="640" y="670" as="sourcePoint" />
            <mxPoint x="910" y="670" as="targetPoint" />
          </mxGeometry>
        </mxCell>
        <mxCell id="_XR76nhHlAqlG2cMq_mx-18" style="edgeStyle=orthogonalEdgeStyle;rounded=0;orthogonalLoop=1;jettySize=auto;html=1;" parent="_XR76nhHlAqlG2cMq_mx-14" edge="1">
          <mxGeometry relative="1" as="geometry">
            <mxPoint x="528" y="650" as="sourcePoint" />
            <mxPoint x="115" y="650" as="targetPoint" />
            <Array as="points">
              <mxPoint x="220" y="650" />
              <mxPoint x="220" y="650" />
            </Array>
          </mxGeometry>
        </mxCell>
        <mxCell id="_XR76nhHlAqlG2cMq_mx-19" value="&lt;font style=&quot;font-size: 16px;&quot;&gt;AcceptedDataRequest&lt;/font&gt;" style="edgeLabel;html=1;align=center;verticalAlign=middle;resizable=0;points=[];" parent="_XR76nhHlAqlG2cMq_mx-18" vertex="1" connectable="0">
          <mxGeometry x="-0.0061" y="-1" relative="1" as="geometry">
            <mxPoint x="-13" y="13" as="offset" />
          </mxGeometry>
        </mxCell>
        <mxCell id="_XR76nhHlAqlG2cMq_mx-20" value="&lt;font style=&quot;&quot;&gt;&lt;font style=&quot;font-size: 16px;&quot;&gt;OrchestratorRequest&lt;/font&gt;&lt;br&gt;&lt;/font&gt;" style="text;html=1;strokeColor=none;fillColor=none;align=center;verticalAlign=middle;whiteSpace=wrap;rounded=0;" parent="_XR76nhHlAqlG2cMq_mx-14" vertex="1">
          <mxGeometry x="670" y="670" width="210" height="40" as="geometry" />
        </mxCell>
        <mxCell id="1hLJXNPvr-CjMOHG3oBd-9" value="" style="endArrow=classic;html=1;rounded=0;" parent="_XR76nhHlAqlG2cMq_mx-14" edge="1">
          <mxGeometry width="50" height="50" relative="1" as="geometry">
            <mxPoint x="660" y="460" as="sourcePoint" />
            <mxPoint x="130" y="620" as="targetPoint" />
          </mxGeometry>
        </mxCell>
        <mxCell id="1hLJXNPvr-CjMOHG3oBd-10" value="&lt;font style=&quot;font-size: 16px;&quot;&gt;TokenExpired&lt;/font&gt;" style="edgeLabel;html=1;align=center;verticalAlign=middle;resizable=0;points=[];" parent="1hLJXNPvr-CjMOHG3oBd-9" vertex="1" connectable="0">
          <mxGeometry x="0.3161" y="1" relative="1" as="geometry">
            <mxPoint x="57" y="7" as="offset" />
          </mxGeometry>
        </mxCell>
        <mxCell id="1hLJXNPvr-CjMOHG3oBd-13" style="edgeStyle=orthogonalEdgeStyle;rounded=0;orthogonalLoop=1;jettySize=auto;html=1;entryX=1.001;entryY=0.86;entryDx=0;entryDy=0;curved=1;exitX=0;exitY=0;exitDx=0;exitDy=0;entryPerimeter=0;" parent="_XR76nhHlAqlG2cMq_mx-14" target="1hLJXNPvr-CjMOHG3oBd-45" edge="1">
          <mxGeometry relative="1" as="geometry">
            <mxPoint x="928" y="642" as="sourcePoint" />
            <mxPoint x="585" y="541" as="targetPoint" />
            <Array as="points">
              <mxPoint x="928" y="394" />
            </Array>
          </mxGeometry>
        </mxCell>
        <mxCell id="1hLJXNPvr-CjMOHG3oBd-112" style="rounded=0;orthogonalLoop=1;jettySize=auto;html=1;entryX=0.403;entryY=1.001;entryDx=0;entryDy=0;exitX=0;exitY=0;exitDx=0;exitDy=0;entryPerimeter=0;" parent="_XR76nhHlAqlG2cMq_mx-14" edge="1">
          <mxGeometry relative="1" as="geometry">
            <mxPoint x="928" y="642" as="sourcePoint" />
            <mxPoint x="926" y="449" as="targetPoint" />
          </mxGeometry>
        </mxCell>
        <mxCell id="1hLJXNPvr-CjMOHG3oBd-113" value="" style="endArrow=classic;html=1;rounded=0;" parent="_XR76nhHlAqlG2cMq_mx-14" edge="1">
          <mxGeometry width="50" height="50" relative="1" as="geometry">
            <mxPoint x="80" y="460" as="sourcePoint" />
            <mxPoint x="80" y="610" as="targetPoint" />
          </mxGeometry>
        </mxCell>
        <mxCell id="1hLJXNPvr-CjMOHG3oBd-114" value="&lt;font style=&quot;font-size: 16px;&quot;&gt;TokenExpired&lt;/font&gt;" style="edgeLabel;html=1;align=center;verticalAlign=middle;resizable=0;points=[];" parent="1hLJXNPvr-CjMOHG3oBd-113" vertex="1" connectable="0">
          <mxGeometry x="0.3161" y="1" relative="1" as="geometry">
            <mxPoint x="57" y="7" as="offset" />
          </mxGeometry>
        </mxCell>
        <mxCell id="1hLJXNPvr-CjMOHG3oBd-115" value="&lt;font style=&quot;font-size: 16px;&quot;&gt;CompositionRequest&lt;/font&gt;" style="edgeLabel;html=1;align=center;verticalAlign=middle;resizable=0;points=[];" parent="_XR76nhHlAqlG2cMq_mx-14" vertex="1" connectable="0">
          <mxGeometry x="1010.0001751896165" y="599.995842247336" as="geometry" />
        </mxCell>
        <mxCell id="1hLJXNPvr-CjMOHG3oBd-220" value="1" style="ellipse;whiteSpace=wrap;html=1;aspect=fixed;strokeWidth=2;fontFamily=Tahoma;spacingBottom=4;spacingRight=2;strokeColor=#d3d3d3;" parent="_XR76nhHlAqlG2cMq_mx-14" vertex="1">
          <mxGeometry x="555" y="760" width="20" height="20" as="geometry" />
        </mxCell>
        <mxCell id="1hLJXNPvr-CjMOHG3oBd-221" value="2" style="ellipse;whiteSpace=wrap;html=1;aspect=fixed;strokeWidth=2;fontFamily=Tahoma;spacingBottom=4;spacingRight=2;strokeColor=#d3d3d3;" parent="_XR76nhHlAqlG2cMq_mx-14" vertex="1">
          <mxGeometry x="750" y="648" width="20" height="20" as="geometry" />
        </mxCell>
        <mxCell id="1hLJXNPvr-CjMOHG3oBd-222" value="2" style="ellipse;whiteSpace=wrap;html=1;aspect=fixed;strokeWidth=2;fontFamily=Tahoma;spacingBottom=4;spacingRight=2;strokeColor=#d3d3d3;" parent="_XR76nhHlAqlG2cMq_mx-14" vertex="1">
          <mxGeometry x="350" y="520" width="20" height="20" as="geometry" />
        </mxCell>
        <mxCell id="1hLJXNPvr-CjMOHG3oBd-223" value="2" style="ellipse;whiteSpace=wrap;html=1;aspect=fixed;strokeWidth=2;fontFamily=Tahoma;spacingBottom=4;spacingRight=2;strokeColor=#d3d3d3;" parent="_XR76nhHlAqlG2cMq_mx-14" vertex="1">
          <mxGeometry x="60" y="520" width="20" height="20" as="geometry" />
        </mxCell>
        <mxCell id="1hLJXNPvr-CjMOHG3oBd-224" value="3" style="ellipse;whiteSpace=wrap;html=1;aspect=fixed;strokeWidth=2;fontFamily=Tahoma;spacingBottom=4;spacingRight=2;strokeColor=#d3d3d3;" parent="_XR76nhHlAqlG2cMq_mx-14" vertex="1">
          <mxGeometry x="890" y="590" width="20" height="20" as="geometry" />
        </mxCell>
        <mxCell id="1hLJXNPvr-CjMOHG3oBd-225" value="4" style="ellipse;whiteSpace=wrap;html=1;aspect=fixed;strokeWidth=2;fontFamily=Tahoma;spacingBottom=4;spacingRight=2;strokeColor=#d3d3d3;" parent="_XR76nhHlAqlG2cMq_mx-14" vertex="1">
          <mxGeometry x="300" y="750" width="20" height="20" as="geometry" />
        </mxCell>
        <mxCell id="1hLJXNPvr-CjMOHG3oBd-226" value="5" style="ellipse;whiteSpace=wrap;html=1;aspect=fixed;strokeWidth=2;fontFamily=Tahoma;spacingBottom=4;spacingRight=2;strokeColor=#d3d3d3;" parent="_XR76nhHlAqlG2cMq_mx-14" vertex="1">
          <mxGeometry x="300" y="670" width="20" height="20" as="geometry" />
        </mxCell>
        <object label="Results-Datarequest-loop" id="1hLJXNPvr-CjMOHG3oBd-1">
          <mxCell parent="0" visible="0" />
        </object>
        <mxCell id="1hLJXNPvr-CjMOHG3oBd-2" value="&lt;font style=&quot;font-size: 16px;&quot;&gt;DataRequest&lt;/font&gt;" style="text;html=1;strokeColor=none;fillColor=none;align=center;verticalAlign=middle;whiteSpace=wrap;rounded=0;" parent="1hLJXNPvr-CjMOHG3oBd-1" vertex="1">
          <mxGeometry x="90" y="510" width="100" height="37" as="geometry" />
        </mxCell>
        <mxCell id="1hLJXNPvr-CjMOHG3oBd-3" value="&lt;font style=&quot;&quot;&gt;&lt;font style=&quot;font-size: 16px;&quot;&gt;Result&lt;/font&gt;&lt;br&gt;&lt;/font&gt;" style="text;html=1;strokeColor=none;fillColor=none;align=center;verticalAlign=middle;whiteSpace=wrap;rounded=0;" parent="1hLJXNPvr-CjMOHG3oBd-1" vertex="1">
          <mxGeometry x="20" y="510" width="50" height="30" as="geometry" />
        </mxCell>
        <mxCell id="1hLJXNPvr-CjMOHG3oBd-4" value="" style="endArrow=none;html=1;rounded=0;startArrow=classic;startFill=1;endFill=0;" parent="1hLJXNPvr-CjMOHG3oBd-1" edge="1">
          <mxGeometry width="50" height="50" relative="1" as="geometry">
            <mxPoint x="140" y="610" as="sourcePoint" />
            <mxPoint x="750" y="420" as="targetPoint" />
          </mxGeometry>
        </mxCell>
        <mxCell id="1hLJXNPvr-CjMOHG3oBd-5" value="" style="endArrow=classic;html=1;rounded=0;" parent="1hLJXNPvr-CjMOHG3oBd-1" edge="1">
          <mxGeometry width="50" height="50" relative="1" as="geometry">
            <mxPoint x="150" y="620" as="sourcePoint" />
            <mxPoint x="750" y="430" as="targetPoint" />
          </mxGeometry>
        </mxCell>
        <mxCell id="1hLJXNPvr-CjMOHG3oBd-104" value="" style="endArrow=classic;html=1;rounded=0;" parent="1hLJXNPvr-CjMOHG3oBd-1" edge="1">
          <mxGeometry width="50" height="50" relative="1" as="geometry">
            <mxPoint x="90" y="590" as="sourcePoint" />
            <mxPoint x="90" y="470" as="targetPoint" />
          </mxGeometry>
        </mxCell>
        <mxCell id="1hLJXNPvr-CjMOHG3oBd-105" value="" style="endArrow=none;html=1;rounded=0;startArrow=classic;startFill=1;endFill=0;" parent="1hLJXNPvr-CjMOHG3oBd-1" edge="1">
          <mxGeometry width="50" height="50" relative="1" as="geometry">
            <mxPoint x="79.47" y="590" as="sourcePoint" />
            <mxPoint x="79.47" y="470" as="targetPoint" />
          </mxGeometry>
        </mxCell>
        <mxCell id="1hLJXNPvr-CjMOHG3oBd-106" value="&lt;font style=&quot;&quot;&gt;&lt;font style=&quot;font-size: 16px;&quot;&gt;Result&lt;/font&gt;&lt;br&gt;&lt;/font&gt;" style="text;html=1;strokeColor=none;fillColor=none;align=center;verticalAlign=middle;whiteSpace=wrap;rounded=0;" parent="1hLJXNPvr-CjMOHG3oBd-1" vertex="1">
          <mxGeometry x="410" y="470" width="80" height="37" as="geometry" />
        </mxCell>
        <mxCell id="1hLJXNPvr-CjMOHG3oBd-107" value="&lt;font style=&quot;font-size: 16px;&quot;&gt;DataRequest&lt;/font&gt;" style="text;html=1;strokeColor=none;fillColor=none;align=center;verticalAlign=middle;whiteSpace=wrap;rounded=0;" parent="1hLJXNPvr-CjMOHG3oBd-1" vertex="1">
          <mxGeometry x="405" y="526" width="140" height="37" as="geometry" />
        </mxCell>
        <mxCell id="1hLJXNPvr-CjMOHG3oBd-148" value="TTP-Background" parent="0" />
        <mxCell id="1hLJXNPvr-CjMOHG3oBd-149" value="&lt;font style=&quot;font-size: 18px;&quot;&gt;Orchestrator&lt;/font&gt;" style="ellipse;whiteSpace=wrap;html=1;fontSize=18;" parent="1hLJXNPvr-CjMOHG3oBd-148" vertex="1">
          <mxGeometry x="910" y="630" width="120" height="80" as="geometry" />
        </mxCell>
        <mxCell id="1hLJXNPvr-CjMOHG3oBd-151" value="&lt;font style=&quot;font-size: 20px;&quot;&gt;User&lt;/font&gt;" style="sketch=0;outlineConnect=0;fontColor=#232F3E;gradientColor=none;fillColor=#232F3D;strokeColor=none;dashed=0;verticalLabelPosition=bottom;verticalAlign=top;align=center;html=1;fontSize=12;fontStyle=0;aspect=fixed;pointerEvents=1;shape=mxgraph.aws4.user;" parent="1hLJXNPvr-CjMOHG3oBd-148" vertex="1">
          <mxGeometry x="41" y="630" width="78" height="78" as="geometry" />
        </mxCell>
        <mxCell id="1hLJXNPvr-CjMOHG3oBd-152" value="&lt;font style=&quot;font-size: 18px;&quot;&gt;Policy enforcer&lt;/font&gt;" style="ellipse;whiteSpace=wrap;html=1;fontSize=18;" parent="1hLJXNPvr-CjMOHG3oBd-148" vertex="1">
          <mxGeometry x="520" y="630" width="120" height="80" as="geometry" />
        </mxCell>
        <mxCell id="1hLJXNPvr-CjMOHG3oBd-153" value="" style="group" parent="1hLJXNPvr-CjMOHG3oBd-148" vertex="1" connectable="0">
          <mxGeometry x="10" y="60" width="362.0689655172414" height="388.78999999999996" as="geometry" />
        </mxCell>
        <mxCell id="1hLJXNPvr-CjMOHG3oBd-154" value="" style="rounded=1;whiteSpace=wrap;html=1;fontSize=18;" parent="1hLJXNPvr-CjMOHG3oBd-153" vertex="1">
          <mxGeometry width="362.0689655172414" height="388.79" as="geometry" />
        </mxCell>
        <mxCell id="1hLJXNPvr-CjMOHG3oBd-155" value="&lt;b style=&quot;font-size: 18px;&quot;&gt;Data steward - VU&lt;br&gt;&lt;/b&gt;" style="text;html=1;strokeColor=none;fillColor=none;align=center;verticalAlign=middle;whiteSpace=wrap;rounded=0;fontSize=18;" parent="1hLJXNPvr-CjMOHG3oBd-153" vertex="1">
          <mxGeometry x="20.002439048904705" width="177.94438271990612" height="34.075325623858795" as="geometry" />
        </mxCell>
        <mxCell id="1hLJXNPvr-CjMOHG3oBd-156" value="&lt;font style=&quot;font-size: 20px;&quot;&gt;Data pod&lt;/font&gt;" style="sketch=0;outlineConnect=0;fontColor=#232F3E;gradientColor=none;fillColor=#000000;strokeColor=none;dashed=0;verticalLabelPosition=bottom;verticalAlign=top;align=center;html=1;fontSize=12;fontStyle=0;aspect=fixed;pointerEvents=1;shape=mxgraph.aws4.vault;" parent="1hLJXNPvr-CjMOHG3oBd-153" vertex="1">
          <mxGeometry x="49.99796902122398" y="42.5436750659363" width="54.027032030882225" height="67.97232114274954" as="geometry" />
        </mxCell>
        <mxCell id="1hLJXNPvr-CjMOHG3oBd-157" value="&lt;font style=&quot;font-size: 18px;&quot;&gt;Distributed agent&lt;br&gt;&lt;/font&gt;" style="ellipse;whiteSpace=wrap;html=1;fontSize=18;" parent="1hLJXNPvr-CjMOHG3oBd-153" vertex="1">
          <mxGeometry x="10" y="294" width="82.99" height="59.94" as="geometry" />
        </mxCell>
        <mxCell id="1hLJXNPvr-CjMOHG3oBd-158" value="" style="group" parent="1hLJXNPvr-CjMOHG3oBd-153" vertex="1" connectable="0">
          <mxGeometry x="257.1428571428571" y="37.41186792452834" width="57.14285714285714" height="71.88947169811323" as="geometry" />
        </mxCell>
        <mxCell id="1hLJXNPvr-CjMOHG3oBd-159" value="" style="sketch=0;html=1;dashed=0;whitespace=wrap;fillColor=#2875E2;strokeColor=#ffffff;points=[[0.005,0.63,0],[0.1,0.2,0],[0.9,0.2,0],[0.5,0,0],[0.995,0.63,0],[0.72,0.99,0],[0.5,1,0],[0.28,0.99,0]];verticalLabelPosition=bottom;align=center;verticalAlign=top;shape=mxgraph.kubernetes.icon;prIcon=pod" parent="1hLJXNPvr-CjMOHG3oBd-158" vertex="1">
          <mxGeometry x="3.571428571428571" width="50.00000000000001" height="49.3616586792453" as="geometry" />
        </mxCell>
        <mxCell id="1hLJXNPvr-CjMOHG3oBd-160" value="&lt;font style=&quot;font-size: 14px;&quot;&gt;Query service&lt;/font&gt;" style="text;html=1;strokeColor=none;fillColor=none;align=center;verticalAlign=middle;whiteSpace=wrap;rounded=0;" parent="1hLJXNPvr-CjMOHG3oBd-158" vertex="1">
          <mxGeometry y="49.88249056603775" width="57.14285714285714" height="22.006981132075474" as="geometry" />
        </mxCell>
        <mxCell id="1hLJXNPvr-CjMOHG3oBd-161" value="" style="group" parent="1hLJXNPvr-CjMOHG3oBd-153" vertex="1" connectable="0">
          <mxGeometry x="257.1428571428571" y="125.23909433962268" width="57.14285714285714" height="71.88947169811323" as="geometry" />
        </mxCell>
        <mxCell id="1hLJXNPvr-CjMOHG3oBd-162" value="" style="sketch=0;html=1;dashed=0;whitespace=wrap;fillColor=#2875E2;strokeColor=#ffffff;points=[[0.005,0.63,0],[0.1,0.2,0],[0.9,0.2,0],[0.5,0,0],[0.995,0.63,0],[0.72,0.99,0],[0.5,1,0],[0.28,0.99,0]];verticalLabelPosition=bottom;align=center;verticalAlign=top;shape=mxgraph.kubernetes.icon;prIcon=pod" parent="1hLJXNPvr-CjMOHG3oBd-161" vertex="1">
          <mxGeometry x="3.571428571428571" width="50.00000000000001" height="49.3616586792453" as="geometry" />
        </mxCell>
        <mxCell id="1hLJXNPvr-CjMOHG3oBd-163" value="&lt;font style=&quot;font-size: 14px;&quot;&gt;Anonymize service&lt;/font&gt;" style="text;html=1;strokeColor=none;fillColor=none;align=center;verticalAlign=middle;whiteSpace=wrap;rounded=0;" parent="1hLJXNPvr-CjMOHG3oBd-161" vertex="1">
          <mxGeometry y="49.88249056603775" width="57.14285714285714" height="22.006981132075474" as="geometry" />
        </mxCell>
        <mxCell id="1hLJXNPvr-CjMOHG3oBd-170" value="&lt;font style=&quot;font-size: 13px;&quot;&gt;Access Data pod&lt;/font&gt;" style="edgeLabel;html=1;align=center;verticalAlign=middle;resizable=0;points=[];" parent="1hLJXNPvr-CjMOHG3oBd-153" vertex="1" connectable="0">
          <mxGeometry x="180.71428571428578" y="55.111111111111086" as="geometry" />
        </mxCell>
        <mxCell id="1hLJXNPvr-CjMOHG3oBd-171" style="edgeStyle=orthogonalEdgeStyle;rounded=0;orthogonalLoop=1;jettySize=auto;html=1;entryX=0.497;entryY=0.184;entryDx=0;entryDy=0;entryPerimeter=0;" parent="1hLJXNPvr-CjMOHG3oBd-153" source="1hLJXNPvr-CjMOHG3oBd-160" target="1hLJXNPvr-CjMOHG3oBd-162" edge="1">
          <mxGeometry relative="1" as="geometry" />
        </mxCell>
        <mxCell id="1hLJXNPvr-CjMOHG3oBd-174" style="rounded=0;orthogonalLoop=1;jettySize=auto;html=1;entryX=0.005;entryY=0.63;entryDx=0;entryDy=0;entryPerimeter=0;" parent="1hLJXNPvr-CjMOHG3oBd-153" source="1hLJXNPvr-CjMOHG3oBd-157" target="1hLJXNPvr-CjMOHG3oBd-159" edge="1">
          <mxGeometry relative="1" as="geometry" />
        </mxCell>
        <mxCell id="1hLJXNPvr-CjMOHG3oBd-175" value="&lt;font style=&quot;font-size: 13px;&quot;&gt;DataRequest&lt;/font&gt;" style="edgeLabel;html=1;align=center;verticalAlign=middle;resizable=0;points=[];" parent="1hLJXNPvr-CjMOHG3oBd-174" vertex="1" connectable="0">
          <mxGeometry x="-0.0817" y="-1" relative="1" as="geometry">
            <mxPoint x="-40" y="47" as="offset" />
          </mxGeometry>
        </mxCell>
        <mxCell id="1hLJXNPvr-CjMOHG3oBd-176" style="edgeStyle=orthogonalEdgeStyle;rounded=0;orthogonalLoop=1;jettySize=auto;html=1;entryX=0.926;entryY=0.285;entryDx=0;entryDy=0;entryPerimeter=0;" parent="1hLJXNPvr-CjMOHG3oBd-153" source="1hLJXNPvr-CjMOHG3oBd-159" target="1hLJXNPvr-CjMOHG3oBd-156" edge="1">
          <mxGeometry relative="1" as="geometry" />
        </mxCell>
        <mxCell id="1hLJXNPvr-CjMOHG3oBd-177" value="" style="group" parent="1hLJXNPvr-CjMOHG3oBd-148" vertex="1" connectable="0">
          <mxGeometry x="780" y="60" width="362.0689655172414" height="388.78999999999996" as="geometry" />
        </mxCell>
        <mxCell id="1hLJXNPvr-CjMOHG3oBd-178" value="" style="rounded=1;whiteSpace=wrap;html=1;fontSize=18;" parent="1hLJXNPvr-CjMOHG3oBd-177" vertex="1">
          <mxGeometry width="362.0689655172414" height="388.79" as="geometry" />
        </mxCell>
        <mxCell id="1hLJXNPvr-CjMOHG3oBd-179" value="&lt;b style=&quot;font-size: 18px;&quot;&gt;Data steward - UvA&lt;br&gt;&lt;/b&gt;" style="text;html=1;strokeColor=none;fillColor=none;align=center;verticalAlign=middle;whiteSpace=wrap;rounded=0;fontSize=18;" parent="1hLJXNPvr-CjMOHG3oBd-177" vertex="1">
          <mxGeometry x="20.002439048904705" width="177.94438271990612" height="34.075325623858795" as="geometry" />
        </mxCell>
        <mxCell id="1hLJXNPvr-CjMOHG3oBd-180" value="&lt;font style=&quot;font-size: 20px;&quot;&gt;Data pod&lt;/font&gt;" style="sketch=0;outlineConnect=0;fontColor=#232F3E;gradientColor=none;fillColor=#000000;strokeColor=none;dashed=0;verticalLabelPosition=bottom;verticalAlign=top;align=center;html=1;fontSize=12;fontStyle=0;aspect=fixed;pointerEvents=1;shape=mxgraph.aws4.vault;" parent="1hLJXNPvr-CjMOHG3oBd-177" vertex="1">
          <mxGeometry x="49.99796902122398" y="42.5436750659363" width="54.027032030882225" height="67.97232114274954" as="geometry" />
        </mxCell>
        <mxCell id="1hLJXNPvr-CjMOHG3oBd-181" value="&lt;font style=&quot;font-size: 18px;&quot;&gt;Distributed agent&lt;br&gt;&lt;/font&gt;" style="ellipse;whiteSpace=wrap;html=1;fontSize=18;" parent="1hLJXNPvr-CjMOHG3oBd-177" vertex="1">
          <mxGeometry x="20" y="294" width="82.99" height="59.94" as="geometry" />
        </mxCell>
        <mxCell id="1hLJXNPvr-CjMOHG3oBd-182" value="" style="group" parent="1hLJXNPvr-CjMOHG3oBd-177" vertex="1" connectable="0">
          <mxGeometry x="257.1428571428571" y="37.41186792452834" width="57.14285714285714" height="71.88947169811323" as="geometry" />
        </mxCell>
        <mxCell id="1hLJXNPvr-CjMOHG3oBd-183" value="" style="sketch=0;html=1;dashed=0;whitespace=wrap;fillColor=#2875E2;strokeColor=#ffffff;points=[[0.005,0.63,0],[0.1,0.2,0],[0.9,0.2,0],[0.5,0,0],[0.995,0.63,0],[0.72,0.99,0],[0.5,1,0],[0.28,0.99,0]];verticalLabelPosition=bottom;align=center;verticalAlign=top;shape=mxgraph.kubernetes.icon;prIcon=pod" parent="1hLJXNPvr-CjMOHG3oBd-182" vertex="1">
          <mxGeometry x="3.571428571428571" width="50.00000000000001" height="49.3616586792453" as="geometry" />
        </mxCell>
        <mxCell id="1hLJXNPvr-CjMOHG3oBd-184" value="&lt;font style=&quot;font-size: 14px;&quot;&gt;Query service&lt;/font&gt;" style="text;html=1;strokeColor=none;fillColor=none;align=center;verticalAlign=middle;whiteSpace=wrap;rounded=0;" parent="1hLJXNPvr-CjMOHG3oBd-182" vertex="1">
          <mxGeometry y="49.88249056603775" width="57.14285714285714" height="22.006981132075474" as="geometry" />
        </mxCell>
        <mxCell id="1hLJXNPvr-CjMOHG3oBd-185" value="" style="group" parent="1hLJXNPvr-CjMOHG3oBd-177" vertex="1" connectable="0">
          <mxGeometry x="257.1428571428571" y="127.23909433962268" width="57.14285714285714" height="71.88947169811323" as="geometry" />
        </mxCell>
        <mxCell id="1hLJXNPvr-CjMOHG3oBd-186" value="" style="sketch=0;html=1;dashed=0;whitespace=wrap;fillColor=#2875E2;strokeColor=#ffffff;points=[[0.005,0.63,0],[0.1,0.2,0],[0.9,0.2,0],[0.5,0,0],[0.995,0.63,0],[0.72,0.99,0],[0.5,1,0],[0.28,0.99,0]];verticalLabelPosition=bottom;align=center;verticalAlign=top;shape=mxgraph.kubernetes.icon;prIcon=pod" parent="1hLJXNPvr-CjMOHG3oBd-185" vertex="1">
          <mxGeometry x="3.571428571428571" width="50.00000000000001" height="49.3616586792453" as="geometry" />
        </mxCell>
        <mxCell id="1hLJXNPvr-CjMOHG3oBd-187" value="&lt;font style=&quot;font-size: 14px;&quot;&gt;Anonymize service&lt;/font&gt;" style="text;html=1;strokeColor=none;fillColor=none;align=center;verticalAlign=middle;whiteSpace=wrap;rounded=0;" parent="1hLJXNPvr-CjMOHG3oBd-185" vertex="1">
          <mxGeometry y="49.88249056603775" width="57.14285714285714" height="22.006981132075474" as="geometry" />
        </mxCell>
        <mxCell id="1hLJXNPvr-CjMOHG3oBd-194" value="&lt;font style=&quot;font-size: 13px;&quot;&gt;Access Data pod&lt;/font&gt;" style="edgeLabel;html=1;align=center;verticalAlign=middle;resizable=0;points=[];" parent="1hLJXNPvr-CjMOHG3oBd-177" vertex="1" connectable="0">
          <mxGeometry x="180.71428571428578" y="55.111111111111086" as="geometry" />
        </mxCell>
        <mxCell id="1hLJXNPvr-CjMOHG3oBd-195" style="edgeStyle=orthogonalEdgeStyle;rounded=0;orthogonalLoop=1;jettySize=auto;html=1;entryX=0.497;entryY=0.184;entryDx=0;entryDy=0;entryPerimeter=0;" parent="1hLJXNPvr-CjMOHG3oBd-177" source="1hLJXNPvr-CjMOHG3oBd-184" target="1hLJXNPvr-CjMOHG3oBd-186" edge="1">
          <mxGeometry relative="1" as="geometry" />
        </mxCell>
        <mxCell id="1hLJXNPvr-CjMOHG3oBd-197" style="edgeStyle=orthogonalEdgeStyle;rounded=0;orthogonalLoop=1;jettySize=auto;html=1;entryX=0.5;entryY=0.217;entryDx=0;entryDy=0;entryPerimeter=0;" parent="1hLJXNPvr-CjMOHG3oBd-177" edge="1">
          <mxGeometry relative="1" as="geometry">
            <mxPoint x="285.7142857142858" y="310.00642332962275" as="targetPoint" />
          </mxGeometry>
        </mxCell>
        <mxCell id="1hLJXNPvr-CjMOHG3oBd-198" style="rounded=0;orthogonalLoop=1;jettySize=auto;html=1;entryX=0.005;entryY=0.63;entryDx=0;entryDy=0;entryPerimeter=0;" parent="1hLJXNPvr-CjMOHG3oBd-177" source="1hLJXNPvr-CjMOHG3oBd-181" target="1hLJXNPvr-CjMOHG3oBd-183" edge="1">
          <mxGeometry relative="1" as="geometry" />
        </mxCell>
        <mxCell id="1hLJXNPvr-CjMOHG3oBd-199" value="&lt;font style=&quot;font-size: 13px;&quot;&gt;DataRequest&lt;/font&gt;" style="edgeLabel;html=1;align=center;verticalAlign=middle;resizable=0;points=[];" parent="1hLJXNPvr-CjMOHG3oBd-198" vertex="1" connectable="0">
          <mxGeometry x="-0.0817" y="-1" relative="1" as="geometry">
            <mxPoint x="-35" y="57" as="offset" />
          </mxGeometry>
        </mxCell>
        <mxCell id="1hLJXNPvr-CjMOHG3oBd-200" style="edgeStyle=orthogonalEdgeStyle;rounded=0;orthogonalLoop=1;jettySize=auto;html=1;entryX=0.926;entryY=0.285;entryDx=0;entryDy=0;entryPerimeter=0;" parent="1hLJXNPvr-CjMOHG3oBd-177" source="1hLJXNPvr-CjMOHG3oBd-183" target="1hLJXNPvr-CjMOHG3oBd-180" edge="1">
          <mxGeometry relative="1" as="geometry" />
        </mxCell>
        <mxCell id="1hLJXNPvr-CjMOHG3oBd-202" style="edgeStyle=orthogonalEdgeStyle;rounded=0;orthogonalLoop=1;jettySize=auto;html=1;entryX=1.005;entryY=0.388;entryDx=0;entryDy=0;entryPerimeter=0;jumpStyle=arc;jumpSize=8;endArrow=none;endFill=0;" parent="1hLJXNPvr-CjMOHG3oBd-148" source="1hLJXNPvr-CjMOHG3oBd-186" target="1hLJXNPvr-CjMOHG3oBd-118" edge="1">
          <mxGeometry relative="1" as="geometry" />
        </mxCell>
        <mxCell id="1hLJXNPvr-CjMOHG3oBd-204" style="edgeStyle=orthogonalEdgeStyle;rounded=0;orthogonalLoop=1;jettySize=auto;html=1;entryX=0.004;entryY=0.386;entryDx=0;entryDy=0;entryPerimeter=0;endArrow=none;endFill=0;" parent="1hLJXNPvr-CjMOHG3oBd-148" source="1hLJXNPvr-CjMOHG3oBd-162" target="1hLJXNPvr-CjMOHG3oBd-118" edge="1">
          <mxGeometry relative="1" as="geometry" />
        </mxCell>
        <mxCell id="1hLJXNPvr-CjMOHG3oBd-116" value="TTP" parent="0" />
        <mxCell id="1hLJXNPvr-CjMOHG3oBd-117" value="" style="group" parent="1hLJXNPvr-CjMOHG3oBd-116" vertex="1" connectable="0">
          <mxGeometry x="395" y="60" width="362.0689655172414" height="388.78999999999996" as="geometry" />
        </mxCell>
        <mxCell id="1hLJXNPvr-CjMOHG3oBd-118" value="" style="rounded=1;whiteSpace=wrap;html=1;fontSize=18;" parent="1hLJXNPvr-CjMOHG3oBd-117" vertex="1">
          <mxGeometry width="362.0689655172414" height="388.79" as="geometry" />
        </mxCell>
        <mxCell id="1hLJXNPvr-CjMOHG3oBd-119" value="&lt;b style=&quot;font-size: 18px;&quot;&gt;Trusted Third party&lt;br&gt;&lt;/b&gt;" style="text;html=1;strokeColor=none;fillColor=none;align=center;verticalAlign=middle;whiteSpace=wrap;rounded=0;fontSize=18;" parent="1hLJXNPvr-CjMOHG3oBd-117" vertex="1">
          <mxGeometry x="25.00243904890471" width="177.94438271990612" height="34.075325623858795" as="geometry" />
        </mxCell>
        <mxCell id="1hLJXNPvr-CjMOHG3oBd-121" value="&lt;font style=&quot;font-size: 18px;&quot;&gt;Distributed agent&lt;br&gt;&lt;/font&gt;" style="ellipse;whiteSpace=wrap;html=1;fontSize=18;" parent="1hLJXNPvr-CjMOHG3oBd-117" vertex="1">
          <mxGeometry x="15" y="292" width="95" height="63.95" as="geometry" />
        </mxCell>
        <mxCell id="1hLJXNPvr-CjMOHG3oBd-128" value="" style="group" parent="1hLJXNPvr-CjMOHG3oBd-117" vertex="1" connectable="0">
          <mxGeometry x="257.1428571428571" y="211.26701886792455" width="57.14285714285714" height="71.88947169811323" as="geometry" />
        </mxCell>
        <mxCell id="1hLJXNPvr-CjMOHG3oBd-129" value="" style="sketch=0;html=1;dashed=0;whitespace=wrap;fillColor=#2875E2;strokeColor=#ffffff;points=[[0.005,0.63,0],[0.1,0.2,0],[0.9,0.2,0],[0.5,0,0],[0.995,0.63,0],[0.72,0.99,0],[0.5,1,0],[0.28,0.99,0]];verticalLabelPosition=bottom;align=center;verticalAlign=top;shape=mxgraph.kubernetes.icon;prIcon=pod" parent="1hLJXNPvr-CjMOHG3oBd-128" vertex="1">
          <mxGeometry x="3.571428571428571" width="50.00000000000001" height="49.3616586792453" as="geometry" />
        </mxCell>
        <mxCell id="1hLJXNPvr-CjMOHG3oBd-130" value="&lt;font style=&quot;font-size: 14px;&quot;&gt;Algorithm service&lt;/font&gt;" style="text;html=1;strokeColor=none;fillColor=none;align=center;verticalAlign=middle;whiteSpace=wrap;rounded=0;" parent="1hLJXNPvr-CjMOHG3oBd-128" vertex="1">
          <mxGeometry y="49.88249056603775" width="57.14285714285714" height="22.006981132075474" as="geometry" />
        </mxCell>
        <mxCell id="1hLJXNPvr-CjMOHG3oBd-131" value="" style="group" parent="1hLJXNPvr-CjMOHG3oBd-117" vertex="1" connectable="0">
          <mxGeometry x="257.1428571428571" y="299.2949433962264" width="57.14285714285714" height="71.88947169811323" as="geometry" />
        </mxCell>
        <mxCell id="1hLJXNPvr-CjMOHG3oBd-132" value="" style="sketch=0;html=1;dashed=0;whitespace=wrap;fillColor=#2875E2;strokeColor=#ffffff;points=[[0.005,0.63,0],[0.1,0.2,0],[0.9,0.2,0],[0.5,0,0],[0.995,0.63,0],[0.72,0.99,0],[0.5,1,0],[0.28,0.99,0]];verticalLabelPosition=bottom;align=center;verticalAlign=top;shape=mxgraph.kubernetes.icon;prIcon=pod" parent="1hLJXNPvr-CjMOHG3oBd-131" vertex="1">
          <mxGeometry x="3.571428571428571" width="50.00000000000001" height="49.3616586792453" as="geometry" />
        </mxCell>
        <mxCell id="1hLJXNPvr-CjMOHG3oBd-133" value="&lt;font style=&quot;font-size: 14px;&quot;&gt;Graph service&lt;/font&gt;" style="text;html=1;strokeColor=none;fillColor=none;align=center;verticalAlign=middle;whiteSpace=wrap;rounded=0;" parent="1hLJXNPvr-CjMOHG3oBd-131" vertex="1">
          <mxGeometry y="49.88249056603775" width="57.14285714285714" height="22.006981132075474" as="geometry" />
        </mxCell>
        <mxCell id="1hLJXNPvr-CjMOHG3oBd-134" style="edgeStyle=orthogonalEdgeStyle;rounded=0;orthogonalLoop=1;jettySize=auto;html=1;" parent="1hLJXNPvr-CjMOHG3oBd-117" source="1hLJXNPvr-CjMOHG3oBd-132" target="1hLJXNPvr-CjMOHG3oBd-121" edge="1">
          <mxGeometry relative="1" as="geometry" />
        </mxCell>
        <mxCell id="1hLJXNPvr-CjMOHG3oBd-135" value="&lt;font style=&quot;font-size: 13px;&quot;&gt;Result&lt;/font&gt;" style="edgeLabel;html=1;align=center;verticalAlign=middle;resizable=0;points=[];" parent="1hLJXNPvr-CjMOHG3oBd-134" vertex="1" connectable="0">
          <mxGeometry x="-0.4895" y="2" relative="1" as="geometry">
            <mxPoint x="-32" y="8" as="offset" />
          </mxGeometry>
        </mxCell>
        <mxCell id="1hLJXNPvr-CjMOHG3oBd-138" style="edgeStyle=orthogonalEdgeStyle;rounded=0;orthogonalLoop=1;jettySize=auto;html=1;entryX=0.5;entryY=0.177;entryDx=0;entryDy=0;entryPerimeter=0;" parent="1hLJXNPvr-CjMOHG3oBd-117" target="1hLJXNPvr-CjMOHG3oBd-129" edge="1">
          <mxGeometry relative="1" as="geometry">
            <mxPoint x="285.6315789473688" y="195.1285660377357" as="sourcePoint" />
          </mxGeometry>
        </mxCell>
        <mxCell id="1hLJXNPvr-CjMOHG3oBd-139" style="edgeStyle=orthogonalEdgeStyle;rounded=0;orthogonalLoop=1;jettySize=auto;html=1;entryX=0.5;entryY=0.217;entryDx=0;entryDy=0;entryPerimeter=0;" parent="1hLJXNPvr-CjMOHG3oBd-117" source="1hLJXNPvr-CjMOHG3oBd-130" target="1hLJXNPvr-CjMOHG3oBd-132" edge="1">
          <mxGeometry relative="1" as="geometry" />
        </mxCell>
        <mxCell id="1hLJXNPvr-CjMOHG3oBd-145" value="" style="group" parent="1hLJXNPvr-CjMOHG3oBd-117" vertex="1" connectable="0">
          <mxGeometry x="257.1428571428571" y="120.99701886792457" width="57.14285714285714" height="71.88947169811323" as="geometry" />
        </mxCell>
        <mxCell id="1hLJXNPvr-CjMOHG3oBd-146" value="" style="sketch=0;html=1;dashed=0;whitespace=wrap;fillColor=#2875E2;strokeColor=#ffffff;points=[[0.005,0.63,0],[0.1,0.2,0],[0.9,0.2,0],[0.5,0,0],[0.995,0.63,0],[0.72,0.99,0],[0.5,1,0],[0.28,0.99,0]];verticalLabelPosition=bottom;align=center;verticalAlign=top;shape=mxgraph.kubernetes.icon;prIcon=pod" parent="1hLJXNPvr-CjMOHG3oBd-145" vertex="1">
          <mxGeometry x="3.571428571428571" width="50.00000000000001" height="49.3616586792453" as="geometry" />
        </mxCell>
        <mxCell id="1hLJXNPvr-CjMOHG3oBd-147" value="&lt;font style=&quot;font-size: 14px;&quot;&gt;Aggregation&lt;br&gt;service&lt;br&gt;&lt;/font&gt;" style="text;html=1;strokeColor=none;fillColor=none;align=center;verticalAlign=middle;whiteSpace=wrap;rounded=0;" parent="1hLJXNPvr-CjMOHG3oBd-145" vertex="1">
          <mxGeometry y="49.88249056603775" width="57.14285714285714" height="22.006981132075474" as="geometry" />
        </mxCell>
        <mxCell id="1hLJXNPvr-CjMOHG3oBd-206" style="edgeStyle=orthogonalEdgeStyle;rounded=0;orthogonalLoop=1;jettySize=auto;html=1;entryX=1.001;entryY=0.386;entryDx=0;entryDy=0;entryPerimeter=0;endArrow=none;endFill=0;startArrow=classic;startFill=1;" parent="1hLJXNPvr-CjMOHG3oBd-117" source="1hLJXNPvr-CjMOHG3oBd-146" edge="1">
          <mxGeometry relative="1" as="geometry">
            <mxPoint x="362.4310344827586" y="151.07294000000002" as="targetPoint" />
            <Array as="points">
              <mxPoint x="305" y="151" />
              <mxPoint x="305" y="151" />
            </Array>
          </mxGeometry>
        </mxCell>
        <mxCell id="1hLJXNPvr-CjMOHG3oBd-207" style="rounded=0;orthogonalLoop=1;jettySize=auto;html=1;entryX=0;entryY=0.389;entryDx=0;entryDy=0;entryPerimeter=0;exitX=0.005;exitY=0.63;exitDx=0;exitDy=0;exitPerimeter=0;endArrow=none;endFill=0;startArrow=classic;startFill=1;" parent="1hLJXNPvr-CjMOHG3oBd-117" edge="1">
          <mxGeometry relative="1" as="geometry">
            <mxPoint x="260.9642857142858" y="151.09486383584914" as="sourcePoint" />
            <mxPoint y="150.23931" as="targetPoint" />
          </mxGeometry>
        </mxCell>
        <mxCell id="1hLJXNPvr-CjMOHG3oBd-208" value="New-data-request-loop" parent="0" />
        <mxCell id="1hLJXNPvr-CjMOHG3oBd-211" value="&lt;font style=&quot;font-size: 16px;&quot;&gt;DataRequest&lt;/font&gt;" style="text;html=1;strokeColor=none;fillColor=none;align=center;verticalAlign=middle;whiteSpace=wrap;rounded=0;" parent="1hLJXNPvr-CjMOHG3oBd-208" vertex="1">
          <mxGeometry x="100" y="650" width="140" height="37" as="geometry" />
        </mxCell>
        <mxCell id="1hLJXNPvr-CjMOHG3oBd-212" value="&lt;font style=&quot;font-size: 16px;&quot;&gt;DataRequest&lt;/font&gt;" style="text;html=1;strokeColor=none;fillColor=none;align=center;verticalAlign=middle;whiteSpace=wrap;rounded=0;" parent="1hLJXNPvr-CjMOHG3oBd-208" vertex="1">
          <mxGeometry y="590" width="140" height="37" as="geometry" />
        </mxCell>
        <mxCell id="1hLJXNPvr-CjMOHG3oBd-214" value="&lt;font style=&quot;font-size: 16px;&quot;&gt;Result&lt;/font&gt;" style="text;html=1;strokeColor=none;fillColor=none;align=center;verticalAlign=middle;whiteSpace=wrap;rounded=0;" parent="1hLJXNPvr-CjMOHG3oBd-208" vertex="1">
          <mxGeometry x="326" y="447" width="140" height="37" as="geometry" />
        </mxCell>
        <mxCell id="1hLJXNPvr-CjMOHG3oBd-217" style="rounded=0;orthogonalLoop=1;jettySize=auto;html=1;" parent="1hLJXNPvr-CjMOHG3oBd-208" edge="1">
          <mxGeometry relative="1" as="geometry">
            <mxPoint x="115" y="643" as="targetPoint" />
            <mxPoint x="380" y="450" as="sourcePoint" />
          </mxGeometry>
        </mxCell>
        <mxCell id="1hLJXNPvr-CjMOHG3oBd-218" style="edgeStyle=orthogonalEdgeStyle;rounded=0;orthogonalLoop=1;jettySize=auto;html=1;" parent="1hLJXNPvr-CjMOHG3oBd-208" edge="1">
          <mxGeometry relative="1" as="geometry">
            <mxPoint x="80" y="460" as="targetPoint" />
            <mxPoint x="80" y="630" as="sourcePoint" />
          </mxGeometry>
        </mxCell>
        <mxCell id="1hLJXNPvr-CjMOHG3oBd-219" style="rounded=0;orthogonalLoop=1;jettySize=auto;html=1;" parent="1hLJXNPvr-CjMOHG3oBd-208" edge="1">
          <mxGeometry relative="1" as="geometry">
            <mxPoint x="810" y="460" as="targetPoint" />
            <mxPoint x="115" y="659" as="sourcePoint" />
          </mxGeometry>
        </mxCell>
      </root>
    </mxGraphModel>
  </diagram>
</mxfile>
